<svg width="93" height="116" viewBox="0 0 93 116" fill="none" xmlns="http://www.w3.org/2000/svg">
<path d="M11.1863 47.7751L18.1593 53.1395L10.7619 55.6494L3.78825 50.2843L11.1863 47.7751Z" fill="url(#paint0_linear_1_290)" stroke="black"/>
<path d="M20.8412 44.2453L27.8142 49.6097L20.4169 52.1197L13.4432 46.7545L20.8412 44.2453Z" fill="#20699A" stroke="black"/>
<path d="M55.4231 32.0341L62.1986 39.5273L50.2347 43.721L42.1865 36.3898L55.4231 32.0341Z" fill="#20699A" stroke="black"/>
<path d="M73.1839 26.1533L80.0548 34.296L64.2447 38.6977L57.4942 31.1798L73.1839 26.1533Z" fill="url(#paint1_linear_1_290)" stroke="black"/>
<path d="M81.2259 36.1539L87.556 45.0285L72.1793 48.2519L65.4296 40.7347L81.2259 36.1539Z" fill="url(#paint2_linear_1_290)" stroke="black"/>
<path d="M63.4109 41.3384L70.6963 49.5626L59.6603 52.8169L51.5868 45.4627L63.4109 41.3384Z" fill="#20699A" stroke="black"/>
<path d="M20.1089 55.0371L27.0819 60.4016L19.6846 62.9115L12.7109 57.5463L20.1089 55.0371Z" fill="url(#paint3_linear_1_290)" stroke="black"/>
<path d="M29.7638 51.5073L36.7368 56.8718L29.3395 59.3817L22.3658 54.0166L29.7638 51.5073Z" fill="#20699A" stroke="black"/>
<path d="M38.657 32.9503L38.6263 35.4501L41.0347 34.7796C41.0347 34.7796 42.1447 34.7551 42.8334 34.9016C43.4373 35.0301 44.3271 35.42 44.3271 35.42L44.3578 32.9202C44.3578 32.9202 43.2514 32.2812 42.4677 32.0969L42.4563 32.0942C41.5122 31.8723 40.8777 31.7231 39.9679 32.0663C39.3902 32.2842 38.657 32.9503 38.657 32.9503Z" fill="#CBD3D6" stroke="black"/>
<path d="M37.4983 36.0964L36.7961 52.589C36.7961 52.589 38.0725 52.3616 38.8996 52.3147C40.3054 52.2351 41.1462 52.161 42.4969 52.5589C43.2692 52.7863 44.387 53.3821 44.387 53.3821L45.3026 35.792C45.3026 35.792 43.9816 34.9076 43.0163 34.6639C41.804 34.3579 41.0099 34.3557 39.8153 34.7246C38.8106 35.0349 37.4983 36.0964 37.4983 36.0964Z" fill="#EBEDEE" stroke="black"/>
<path d="M33.7829 40.3838C33.8099 39.9182 34.0742 39.4404 34.5482 38.9785C35.0203 38.5185 35.6809 38.0941 36.4504 37.738C37.9915 37.0249 39.9215 36.6072 41.5288 36.7004C43.1549 36.7948 45.0788 37.2398 46.5726 37.9283C47.3198 38.2728 47.9451 38.6721 48.3726 39.1069C48.7993 39.541 49.01 39.9904 48.9834 40.4473C48.9564 40.9106 48.6854 41.3908 48.1972 41.8592C47.7113 42.3252 47.0327 42.7576 46.2448 43.1212C44.6666 43.8494 42.7006 44.2811 41.0943 44.1878C39.4699 44.0936 37.5835 43.6351 36.1264 42.933C35.3978 42.582 34.79 42.1764 34.3754 41.7368C33.9617 41.2981 33.7563 40.844 33.7829 40.3838Z" stroke="black" stroke-width="0.5"/>
<path d="M33.1746 43.6957C33.2016 43.2301 33.4659 42.7523 33.9399 42.2904C34.4121 41.8304 35.0726 41.406 35.8421 41.0499C37.3832 40.3368 39.3132 39.919 40.9206 40.0123C42.5467 40.1067 44.4705 40.5517 45.9643 41.2402C46.7115 41.5847 47.3369 41.984 47.7643 42.4188C48.191 42.8529 48.4017 43.3023 48.3752 43.7592C48.3481 44.2224 48.0771 44.7027 47.5889 45.171C47.1031 45.6371 46.4244 46.0695 45.6365 46.4331C44.0583 47.1613 42.0924 47.593 40.486 47.4997C38.8616 47.4055 36.9752 46.947 35.5181 46.2449C34.7895 45.8939 34.1817 45.4883 33.7671 45.0487C33.3534 44.61 33.148 44.1559 33.1746 43.6957Z" stroke="black" stroke-width="0.5"/>
<line x1="30.3367" y1="51.5121" x2="52.4086" y2="45.7822" stroke="black" stroke-width="0.7"/>
<path d="M37.7923 41.6069L44.4536 41.902L43.8962 51.9161L37.3498 51.5971L37.7923 41.6069Z" fill="#EBEDEE"/>
<path d="M33.6353 62.8598C33.696 62.7739 33.8044 62.6653 33.9713 62.5397C34.3048 62.2887 34.7994 62.0262 35.3897 61.7827C36.5671 61.2973 38.0127 60.9315 39.046 60.8576C40.5121 60.8343 42.1536 61.4573 43.4584 62.2477C44.108 62.6412 44.6532 63.0637 45.0338 63.4425C45.2245 63.6323 45.3649 63.8027 45.4565 63.9445C45.4748 63.9728 45.4891 63.9992 45.5021 64.0226C45.4629 64.025 45.4177 64.0256 45.3672 64.0252C44.9665 64.0217 44.3758 63.9256 43.6629 63.7879C42.9705 63.6542 42.1741 63.4844 41.4275 63.3607C40.684 63.2375 39.9362 63.1497 39.3247 63.1925C38.222 63.2695 36.6997 63.3686 35.4478 63.3146C34.8174 63.2874 34.2929 63.2227 33.935 63.113C33.7552 63.0578 33.6513 63.0015 33.6003 62.9601C33.5947 62.9556 33.5902 62.9516 33.5867 62.9484C33.5922 62.9322 33.605 62.9028 33.6353 62.8598Z" fill="#949494" stroke="black"/>
<path d="M27.0666 67.179C27.1681 66.5455 27.6389 65.8906 28.4777 65.2647C29.3081 64.6452 30.4402 64.0995 31.7326 63.6703C34.3227 62.8104 37.4494 62.4542 39.8509 62.8387C42.2985 63.2306 45.355 64.1877 47.722 65.4418C48.9072 66.0698 49.8901 66.7571 50.5387 67.4613C51.1898 68.1683 51.4485 68.827 51.3518 69.431C51.2522 70.0536 50.7646 70.7027 49.8805 71.3258C49.0076 71.9409 47.8177 72.4801 46.4664 72.9016C43.7587 73.7461 40.5156 74.0851 38.1121 73.7004C35.6651 73.3087 32.7244 72.3693 30.4742 71.1356C29.3479 70.518 28.4235 69.842 27.8175 69.1477C27.2115 68.4533 26.9679 67.7954 27.0666 67.179Z" fill="#EBEDEE" stroke="black"/>
<path d="M33.8999 53.8935L33.5031 61.7893C33.5031 61.7893 36.0982 60.6564 37.6187 60.5396C39.4554 60.3986 40.5742 60.3902 42.3135 60.9972C43.6171 61.4521 45.3924 62.7351 45.3924 62.7351L46.0941 54.443C46.0941 54.443 44.5214 53.4329 43.4114 53.0101C41.5328 52.2943 40.3174 52.0166 38.3204 52.2476C36.4905 52.4593 33.8999 53.8935 33.8999 53.8935Z" fill="#EBEDEE" stroke="black"/>
<line x1="38.1809" y1="82.0285" x2="31.0573" y2="69.6291" stroke="#5D5D5D" stroke-width="0.7" stroke-linecap="round"/>
<line x1="38.8615" y1="82.2094" x2="39.4068" y2="67.9198" stroke="#5D5D5D" stroke-width="0.7" stroke-linecap="round"/>
<line x1="39.3946" y1="82.2827" x2="48.1012" y2="70.9388" stroke="#5D5D5D" stroke-width="0.7" stroke-linecap="round"/>
<circle cx="38.6539" cy="82.154" r="1" transform="rotate(-52.4278 38.6539 82.154)" fill="#F65100" stroke="#F65100"/>
<path d="M29.4555 86.4474C29.4555 86.4474 31.1843 88.8729 32.7764 89.8018C33.8908 90.452 34.6189 90.6717 35.8846 90.9213C37.3213 91.2046 38.1832 91.2118 39.6333 91.0078C40.8664 90.8344 41.5531 90.6191 42.6995 90.1328C43.5539 89.7704 44.0971 89.6222 44.7932 89.0082C45.4484 88.4302 46.1144 87.2028 46.1144 87.2028" stroke="#BCBCBC" stroke-linecap="round"/>
<path d="M26.5922 93.6816C26.5922 93.6816 28.8396 96.8347 30.9094 98.0424C32.358 98.8876 33.3045 99.1733 34.95 99.4977C36.8177 99.866 37.9382 99.8753 39.8233 99.6102C41.4263 99.3848 42.3191 99.1048 43.8093 98.4727C44.9201 98.0015 45.6263 97.8088 46.5311 97.0107C47.3829 96.2593 48.2487 94.6636 48.2487 94.6636" stroke="#767676" stroke-width="1.3" stroke-linecap="round"/>
<path d="M23.7289 100.916C23.7289 100.916 26.4948 104.797 29.0423 106.283C30.8253 107.323 31.9902 107.675 34.0154 108.074C36.3141 108.527 37.6932 108.539 40.0133 108.213C41.9862 107.935 43.085 107.591 44.9192 106.813C46.2862 106.233 47.1554 105.995 48.2691 105.013C49.3174 104.088 50.3831 102.124 50.3831 102.124" stroke="#383838" stroke-width="1.3" stroke-linecap="round"/>
<defs>
<linearGradient id="paint0_linear_1_290" x1="24.084" y1="46.9727" x2="2.16427" y2="56.6048" gradientUnits="userSpaceOnUse">
<stop offset="0.0460166" stop-color="#20699A"/>
<stop offset="0.909269" stop-color="#0B2334"/>
</linearGradient>
<linearGradient id="paint1_linear_1_290" x1="61.3582" y1="25.7201" x2="76.4703" y2="39.4785" gradientUnits="userSpaceOnUse">
<stop stop-color="#20699A"/>
<stop offset="1" stop-color="#0B2334"/>
</linearGradient>
<linearGradient id="paint2_linear_1_290" x1="69.1984" y1="35.3446" x2="84.6885" y2="49.4471" gradientUnits="userSpaceOnUse">
<stop stop-color="#20699A"/>
<stop offset="1" stop-color="#0B2334"/>
</linearGradient>
<linearGradient id="paint3_linear_1_290" x1="28.9917" y1="54.5334" x2="15.791" y2="62.6722" gradientUnits="userSpaceOnUse">
<stop stop-color="#20699A"/>
<stop offset="1" stop-color="#0B2334"/>
</linearGradient>
</defs>
</svg>
