<svg width="80" height="76" viewBox="0 0 80 76" fill="none" xmlns="http://www.w3.org/2000/svg">
<path d="M65.2807 6.07927L65.2802 16.5017L72.9984 11.3566L72.9988 0.933192L65.2807 6.07927Z" fill="url(#paint0_linear_3_317)" stroke="black"/>
<path d="M55.1846 12.473L55.1842 22.8955L62.9023 17.7504L62.9027 7.32693L55.1846 12.473Z" fill="#20699A" stroke="black"/>
<path d="M19.4125 35.6854L21.5448 47.4125L34.0323 39.269L32.9663 26.4696L19.4125 35.6854Z" fill="#20699A" stroke="black"/>
<path d="M1.4028 47.8829L4.07284 60.1622L19.4769 48.6096L17.3029 36.8879L1.4028 47.8829Z" fill="url(#paint1_linear_3_317)" stroke="black"/>
<path d="M4.91206 62.3869L8.65462 74.684L22.6551 62.6893L20.4811 50.9685L4.91206 62.3869Z" fill="url(#paint2_linear_3_317)" stroke="black"/>
<path d="M22.3227 49.6404L24.7707 62.3614L35.7318 54.3984L34.663 41.5649L22.3227 49.6404Z" fill="#20699A" stroke="black"/>
<path d="M65.6475 19.4479L65.6471 29.8704L73.3652 24.7253L73.3656 14.3018L65.6475 19.4479Z" fill="url(#paint3_linear_3_317)" stroke="black"/>
<path d="M55.5515 25.8417L55.551 36.2641L63.2692 31.119L63.2695 20.6956L55.5515 25.8417Z" fill="#20699A" stroke="black"/>
<path d="M32.2303 20.9249L34.5553 22.6686L32.2303 24.4123C32.2303 24.4123 31.4209 25.4178 31.0678 26.1561C30.7581 26.8036 30.4866 27.8998 30.4866 27.8998L28.1616 26.1561C28.1616 26.1561 28.3571 24.6838 28.7428 23.8311L28.7485 23.8187C29.2131 22.7915 29.5254 22.1011 30.4866 21.5061C31.0969 21.1283 32.2303 20.9249 32.2303 20.9249Z" fill="#CBD3D6" stroke="black"/>
<path d="M35.9502 22.0873L51.6438 33.131C51.6438 33.131 50.5295 34.1459 49.9001 34.8748C48.8302 36.1136 48.166 36.8357 47.5751 38.3622C47.2372 39.235 46.9938 40.6872 46.9938 40.6872L30.1377 29.0623C30.1377 29.0623 30.2592 27.2183 30.7189 26.1561C31.2963 24.8222 31.8572 24.089 33.0439 23.2498C34.042 22.5441 35.9502 22.0873 35.9502 22.0873Z" fill="#EBEDEE" stroke="black"/>
<path d="M42.557 21.6696C42.0974 21.3566 41.4582 21.2614 40.6913 21.3715C39.9267 21.4813 39.0628 21.7917 38.1864 22.2498C36.4319 23.1669 34.6739 24.6532 33.6162 26.2065C32.548 27.7754 31.5922 29.8674 31.1666 31.7372C30.9536 32.6726 30.8766 33.5374 30.9752 34.2462C31.0736 34.9539 31.3424 35.4792 31.7949 35.7873C32.2528 36.0989 32.8996 36.1893 33.6825 36.0707C34.4622 35.9525 35.3464 35.6312 36.2426 35.1615C38.0369 34.221 39.8329 32.7116 40.89 31.1592C41.9572 29.5917 42.8739 27.5237 43.2611 25.6779C43.4547 24.7547 43.5132 23.9015 43.401 23.2012C43.2889 22.5023 43.0121 21.9796 42.557 21.6696Z" stroke="black" stroke-width="0.5"/>
<path d="M46.0399 23.4567C45.5803 23.1438 44.9412 23.0486 44.1742 23.1587C43.4096 23.2685 42.5457 23.5789 41.6693 24.037C39.9148 24.9541 38.1568 26.4403 37.0991 27.9937C36.0309 29.5626 35.0752 31.6546 34.6495 33.5243C34.4365 34.4597 34.3595 35.3246 34.4581 36.0334C34.5565 36.7411 34.8253 37.2664 35.2778 37.5745C35.7357 37.886 36.3825 37.9765 37.1654 37.8578C37.9451 37.7397 38.8293 37.4184 39.7255 36.9487C41.5198 36.0082 43.3158 34.4988 44.3729 32.9464C45.4401 31.3789 46.3568 29.3108 46.744 27.4651C46.9377 26.5419 46.9961 25.6887 46.8839 24.9883C46.7718 24.2894 46.495 23.7668 46.0399 23.4567Z" stroke="black" stroke-width="0.5"/>
<line y1="-0.35" x2="26.5089" y2="-0.35" transform="matrix(-0.789352 0.613941 0.613941 0.789352 55.4803 26.7373)" stroke="black" stroke-width="0.7"/>
<path d="M40.8195 26.2644L36.3695 32.6111L45.9913 39.196L50.3379 32.9382L40.8195 26.2644Z" fill="#EBEDEE"/>
<path d="M63.5315 37.461C63.5247 37.4551 63.4823 37.424 63.3512 37.4185C63.2176 37.4131 63.032 37.4371 62.7932 37.5032C62.3161 37.6351 61.7169 37.9091 61.071 38.2823C59.7828 39.0266 58.413 40.1044 57.6056 41.0122C56.5307 42.363 55.9372 44.3353 55.7395 46.1069C55.641 46.9893 55.6439 47.7977 55.7241 48.4245C55.7643 48.7385 55.8226 48.9952 55.8909 49.1872C55.9242 49.281 55.9572 49.3494 55.9852 49.3988C56.0321 49.3537 56.0939 49.2852 56.1702 49.1843C56.4564 48.8058 56.7897 48.1863 57.1679 47.4325C57.5365 46.6978 57.9429 45.847 58.3574 45.0728C58.7706 44.3011 59.2168 43.5563 59.6829 43.0308C60.5351 42.07 61.7073 40.7345 62.5478 39.5386C62.9709 38.9367 63.2881 38.4005 63.4445 37.983C63.5229 37.7737 63.548 37.6273 63.5457 37.5362C63.5447 37.4949 63.5382 37.474 63.5354 37.467C63.5336 37.4626 63.5327 37.462 63.5315 37.461Z" fill="#949494" stroke="black"/>
<path d="M72.0224 34.4371C71.3401 34.0671 70.3788 34.0421 69.1982 34.3739C68.0276 34.7029 66.7138 35.3642 65.3975 36.2541C62.7609 38.0366 60.2065 40.673 58.851 43.1718C57.4732 45.7118 56.186 49.2155 55.662 52.2951C55.3997 53.8368 55.3345 55.2401 55.5258 56.3496C55.7177 57.4624 56.1498 58.1956 56.8056 58.5515C57.4783 58.9163 58.4479 58.921 59.6575 58.5453C60.8537 58.1737 62.201 57.4549 63.5513 56.5057C66.2566 54.6039 68.8779 51.8473 70.2344 49.3465C71.6118 46.8071 72.8344 43.4233 73.2942 40.4653C73.5243 38.985 73.558 37.6436 73.3453 36.5801C73.1324 35.5165 72.6894 34.799 72.0224 34.4371Z" fill="#EBEDEE" stroke="black"/>
<path d="M54.8989 31.3873L62.4551 36.6185C62.4551 36.6185 59.5718 38.2065 58.3864 39.5247C56.9545 41.117 56.1537 42.142 55.4801 44.1747C54.9752 45.6983 54.8989 48.2434 54.8989 48.2434L46.7614 43.0122C46.7614 43.0122 46.9456 40.8471 47.3427 39.5247C48.0148 37.2865 48.6205 35.9698 50.2489 34.2935C51.741 32.7575 54.8989 31.3873 54.8989 31.3873Z" fill="#EBEDEE" stroke="black"/>
<line x1="0.35" y1="-0.35" x2="17.0874" y2="-0.35" transform="matrix(-0.38349 -0.923545 -0.923545 0.383489 77.5675 55.8067)" stroke="#5D5D5D" stroke-width="0.7" stroke-linecap="round"/>
<line x1="0.35" y1="-0.35" x2="17.0874" y2="-0.35" transform="matrix(-0.815261 -0.579094 -0.579094 0.815261 77.5675 56.5976)" stroke="#5D5D5D" stroke-width="0.7" stroke-linecap="round"/>
<line x1="0.35" y1="-0.35" x2="17.0874" y2="-0.35" transform="matrix(-0.999999 -0.00113638 -0.00113639 0.999999 77.5675 56.9806)" stroke="#5D5D5D" stroke-width="0.7" stroke-linecap="round"/>
<ellipse cx="1.16249" cy="1.16249" rx="1.16249" ry="1.16249" transform="matrix(-1 0 0 1 78.73 54.6371)" fill="#F65100" stroke="#F65100"/>
<defs>
<linearGradient id="paint0_linear_3_317" x1="55.4799" y1="17.4374" x2="79.8922" y2="4.06871" gradientUnits="userSpaceOnUse">
<stop offset="0.0460166" stop-color="#20699A"/>
<stop offset="0.909269" stop-color="#0B2334"/>
</linearGradient>
<linearGradient id="paint1_linear_3_317" x1="9.47689" y1="36.7161" x2="11.4414" y2="60.3926" gradientUnits="userSpaceOnUse">
<stop stop-color="#20699A"/>
<stop offset="1" stop-color="#0B2334"/>
</linearGradient>
<linearGradient id="paint2_linear_3_317" x1="12.7873" y1="50.7623" x2="14.801" y2="75.0308" gradientUnits="userSpaceOnUse">
<stop stop-color="#20699A"/>
<stop offset="1" stop-color="#0B2334"/>
</linearGradient>
<linearGradient id="paint3_linear_3_317" x1="58.9678" y1="27.3186" x2="75.824" y2="20.9248" gradientUnits="userSpaceOnUse">
<stop stop-color="#20699A"/>
<stop offset="1" stop-color="#0B2334"/>
</linearGradient>
</defs>
</svg>
