<svg width="102" height="97" viewBox="0 0 102 97" fill="none" xmlns="http://www.w3.org/2000/svg">
<path d="M18.3478 7.70428L18.3472 21.3751L8.19356 14.605L8.19314 0.934166L18.3478 7.70428Z" fill="url(#paint0_linear_3_363)" stroke="black"/>
<path d="M31.265 15.8846L31.2645 29.5554L21.1108 22.7854L21.1104 9.11452L31.265 15.8846Z" fill="#20699A" stroke="black"/>
<path d="M77.0466 45.5932L74.2651 60.8931L58.0414 50.3132L59.4327 33.6162L77.0466 45.5932Z" fill="#20699A" stroke="black"/>
<path d="M100.091 61.2014L96.6095 77.2174L76.6574 62.2535L79.4944 46.9582L100.091 61.2014Z" fill="url(#paint1_linear_3_363)" stroke="black"/>
<path d="M95.6061 79.7653L90.7265 95.7985L72.5918 80.2604L75.4286 64.967L95.6061 79.7653Z" fill="url(#paint2_linear_3_363)" stroke="black"/>
<path d="M73.3234 63.4463L70.1317 80.0292L55.8666 69.6657L57.2597 52.9345L73.3234 63.4463Z" fill="#20699A" stroke="black"/>
<path d="M17.8777 24.8087L17.8771 38.4795L7.72347 31.7094L7.72305 18.0385L17.8777 24.8087Z" fill="url(#paint3_linear_3_363)" stroke="black"/>
<path d="M30.7948 32.989L30.7943 46.6598L20.6406 39.8898L20.6402 26.2189L30.7948 32.989Z" fill="#20699A" stroke="black"/>
<path d="M60.4929 26.772L57.5183 29.003L60.4929 31.234C60.4929 31.234 61.5285 32.5204 61.9803 33.465C62.3765 34.2936 62.7239 35.696 62.7239 35.696L65.6986 33.465C65.6986 33.465 65.4484 31.5814 64.9549 30.4904L64.9477 30.4745C64.3532 29.1602 63.9536 28.277 62.7239 27.5157C61.9431 27.0323 60.4929 26.772 60.4929 26.772Z" fill="#CBD3D6" stroke="black"/>
<path d="M55.7338 28.2594L35.655 42.3891C35.655 42.3891 37.0807 43.6876 37.886 44.6201C39.2548 46.205 40.1046 47.129 40.8606 49.0821C41.2929 50.1988 41.6043 52.0567 41.6043 52.0567L63.1704 37.1834C63.1704 37.1834 63.015 34.8241 62.4268 33.4651C61.6881 31.7585 60.9704 30.8204 59.4521 29.7467C58.1752 28.8437 55.7338 28.2594 55.7338 28.2594Z" fill="#EBEDEE" stroke="black"/>
<path d="M47.2419 27.6668C47.8498 27.2528 48.6872 27.1323 49.678 27.2746C50.6663 27.4165 51.7794 27.8168 52.9052 28.4053C55.1586 29.5832 57.4168 31.4917 58.7774 33.4899C60.1485 35.5036 61.3754 38.1883 61.9222 40.5899C62.1957 41.7913 62.2952 42.9071 62.1675 43.8254C62.04 44.7426 61.6911 45.4364 61.0903 45.8455C60.4841 46.2583 59.6358 46.372 58.6248 46.2188C57.6172 46.0661 56.4789 45.6514 55.3278 45.0481C53.0236 43.8404 50.7157 41.9026 49.3557 39.9051C47.9856 37.8929 46.8089 35.239 46.3114 32.8678C46.0627 31.6819 45.9866 30.5811 46.132 29.6736C46.2773 28.7674 46.6383 28.0778 47.2419 27.6668Z" stroke="black" stroke-width="0.5"/>
<path d="M42.7856 29.9534C43.3935 29.5394 44.2309 29.4189 45.2217 29.5611C46.21 29.7031 47.3231 30.1033 48.4489 30.6918C50.7023 31.8698 52.9605 33.7783 54.3211 35.7765C55.6922 37.7902 56.9191 40.4748 57.4659 42.8765C57.7394 44.0778 57.8389 45.1937 57.7112 46.112C57.5837 47.0292 57.2348 47.723 56.634 48.1321C56.0278 48.5448 55.1795 48.6585 54.1685 48.5053C53.1609 48.3526 52.0226 47.938 50.8715 47.3347C48.5673 46.127 46.2594 44.1891 44.8994 42.1917C43.5293 40.1795 42.3526 37.5255 41.8551 35.1544C41.6064 33.9685 41.5303 32.8676 41.6757 31.9602C41.821 31.054 42.182 30.3643 42.7856 29.9534Z" stroke="black" stroke-width="0.5"/>
<line y1="-0.35" x2="33.9162" y2="-0.35" transform="matrix(0.789349 0.613945 -0.613936 0.789356 30.7457 34.2087)" stroke="black" stroke-width="0.7"/>
<path d="M49.5032 33.6036L55.1965 41.7238L42.8862 50.1487L37.3251 42.1422L49.5032 33.6036Z" fill="#EBEDEE"/>
<path d="M20.3521 47.8246C20.3914 47.7898 20.4793 47.7429 20.6695 47.735C20.8602 47.7271 21.1135 47.7607 21.4272 47.8475C22.0537 48.0208 22.8319 48.3783 23.6632 48.8587C25.3219 49.8171 27.0878 51.2055 28.1326 52.3807C29.5328 54.1376 30.2975 56.6926 30.5522 58.9751C30.6792 60.1131 30.6774 61.1592 30.5731 61.9745C30.5208 62.3826 30.444 62.7204 30.3524 62.9782C30.2719 63.2047 30.1897 63.3361 30.129 63.4048C30.0508 63.3556 29.9232 63.2401 29.7513 63.0128C29.3761 62.5166 28.9456 61.7115 28.4626 60.7488C27.9891 59.8051 27.4708 58.7214 26.9416 57.7328C26.4138 56.747 25.8501 55.8075 25.2654 55.1482C24.1758 53.9196 22.6697 52.205 21.5888 50.6672C21.0456 49.8943 20.6311 49.1966 20.4247 48.6452C20.3213 48.3688 20.2834 48.1622 20.2871 48.0206C20.2906 47.8917 20.3263 47.8475 20.3521 47.8246Z" fill="#949494" stroke="black"/>
<path d="M9.51508 43.9375C10.4339 43.4391 11.7066 43.4158 13.2333 43.8449C14.7497 44.2711 16.4443 45.1243 18.1361 46.2681C21.5241 48.5586 24.8091 51.9485 26.5561 55.1692C28.3255 58.4311 29.9791 62.9278 30.6523 66.8846C30.9891 68.8648 31.0745 70.6772 30.8261 72.1186C30.577 73.5638 30.0096 74.5524 29.117 75.0365C28.2079 75.5295 26.9228 75.5238 25.3609 75.0387C23.8119 74.5576 22.0747 73.6293 20.3397 72.4097C16.8652 69.9671 13.495 66.425 11.7469 63.2023C9.97794 59.941 8.40774 55.597 7.81663 51.7947C7.52084 49.892 7.47579 48.1566 7.75259 46.7734C8.02942 45.3906 8.61176 44.4276 9.51508 43.9375Z" fill="#EBEDEE" stroke="black"/>
<path d="M31.4903 40.1581L21.8228 46.8511C21.8228 46.8511 25.5117 48.8828 27.0284 50.5694C28.8603 52.6067 29.8848 53.918 30.7467 56.5188C31.3926 58.4681 31.4903 61.7244 31.4903 61.7244L41.9015 55.0314C41.9015 55.0314 41.666 52.2613 41.1579 50.5694C40.2979 47.7057 39.523 46.0211 37.4396 43.8764C35.5305 41.9112 31.4903 40.1581 31.4903 40.1581Z" fill="#EBEDEE" stroke="black"/>
<line x1="0.35" y1="-0.35" x2="21.96" y2="-0.35" transform="matrix(0.383486 -0.923547 0.923544 0.383493 2.48755 71.4011)" stroke="#5D5D5D" stroke-width="0.7" stroke-linecap="round"/>
<line x1="0.35" y1="-0.35" x2="21.9599" y2="-0.35" transform="matrix(0.815258 -0.579098 0.579089 0.815264 2.48755 72.413)" stroke="#5D5D5D" stroke-width="0.7" stroke-linecap="round"/>
<line x1="2.83715" y1="72.5527" x2="24.4469" y2="72.5281" stroke="#5D5D5D" stroke-width="0.7" stroke-linecap="round"/>
<ellipse cx="2.48732" cy="71.3921" rx="1.48732" ry="1.48733" fill="#F65100" stroke="#F65100"/>
<defs>
<linearGradient id="paint0_linear_3_363" x1="30.7469" y1="22.31" x2="-0.486921" y2="5.20594" gradientUnits="userSpaceOnUse">
<stop offset="0.0460166" stop-color="#20699A"/>
<stop offset="0.909269" stop-color="#0B2334"/>
</linearGradient>
<linearGradient id="paint1_linear_3_363" x1="89.6046" y1="46.9759" x2="87.091" y2="77.2685" gradientUnits="userSpaceOnUse">
<stop stop-color="#20699A"/>
<stop offset="1" stop-color="#0B2334"/>
</linearGradient>
<linearGradient id="paint2_linear_3_363" x1="85.3686" y1="64.9471" x2="82.7921" y2="95.9972" gradientUnits="userSpaceOnUse">
<stop stop-color="#20699A"/>
<stop offset="1" stop-color="#0B2334"/>
</linearGradient>
<linearGradient id="paint3_linear_3_363" x1="26.2836" y1="34.9524" x2="4.71743" y2="26.7722" gradientUnits="userSpaceOnUse">
<stop stop-color="#20699A"/>
<stop offset="1" stop-color="#0B2334"/>
</linearGradient>
</defs>
</svg>
